<svg width="478" height="515" viewBox="0 0 478 515" fill="none" xmlns="http://www.w3.org/2000/svg">
<g opacity="0.9" clip-path="url(#clip0_12_0)">
<path d="M303.209 292.194L96.5871 345.471C89.5782 347.27 82.143 346.212 75.9126 342.528C69.6822 338.845 65.1653 332.837 63.3531 325.823L0.865157 82.8436C-0.931266 75.8255 0.125828 68.3805 3.80454 62.1419C7.48325 55.9033 13.4831 51.3805 20.4879 49.5659L212.716 0L261.917 22.0547L322.832 258.916C324.628 265.934 323.571 273.379 319.893 279.618C316.214 285.857 310.214 290.379 303.209 292.194V292.194Z" fill="#F2F2F2"/>
<path d="M22.4473 57.184C17.459 58.4763 13.1864 61.697 10.5667 66.1397C7.94697 70.5823 7.1942 75.884 8.47348 80.8817L70.9614 323.861C72.2519 328.856 75.4685 333.134 79.9053 335.757C84.3421 338.38 89.6369 339.134 94.628 337.853L301.25 284.576C306.238 283.284 310.511 280.063 313.131 275.62C315.75 271.178 316.503 265.876 315.224 260.878L255.253 27.6866L212.014 8.30432L22.4473 57.184Z" fill="white"/>
<path d="M261.392 23.3082L229.415 31.5536C227.08 32.1556 224.603 31.8043 222.527 30.577C220.451 29.3498 218.947 27.3471 218.346 25.0096L212.264 1.36044C212.238 1.25691 212.241 1.14795 212.273 1.04608C212.305 0.944199 212.366 0.853524 212.447 0.784448C212.529 0.715371 212.628 0.670689 212.734 0.655529C212.84 0.640368 212.947 0.655339 213.045 0.698729L261.481 22.2375C261.589 22.2855 261.679 22.3658 261.74 22.4674C261.8 22.569 261.827 22.6868 261.817 22.8045C261.807 22.9222 261.761 23.0339 261.685 23.1242C261.609 23.2144 261.507 23.2788 261.392 23.3082V23.3082Z" fill="#F2F2F2"/>
<path d="M244.569 230.807L150.497 255.064C149.919 255.213 149.318 255.246 148.727 255.163C148.136 255.079 147.567 254.879 147.053 254.575C146.539 254.272 146.09 253.869 145.731 253.392C145.373 252.914 145.112 252.37 144.963 251.792C144.814 251.213 144.78 250.611 144.864 250.019C144.948 249.427 145.147 248.858 145.45 248.343C145.754 247.829 146.156 247.379 146.633 247.02C147.11 246.661 147.653 246.399 148.231 246.25L242.303 221.994C242.881 221.845 243.482 221.811 244.073 221.895C244.664 221.979 245.233 222.178 245.747 222.482C246.261 222.786 246.71 223.188 247.068 223.666C247.427 224.143 247.688 224.687 247.837 225.266C247.986 225.844 248.019 226.447 247.936 227.038C247.852 227.63 247.653 228.199 247.349 228.714C247.046 229.229 246.644 229.678 246.167 230.038C245.69 230.397 245.147 230.658 244.569 230.807Z" fill="#CCCCCC"/>
<path d="M266.548 240.999L154.322 269.937C153.155 270.238 151.916 270.062 150.878 269.448C149.84 268.835 149.088 267.833 148.788 266.665C148.487 265.496 148.663 264.255 149.275 263.216C149.888 262.177 150.888 261.424 152.055 261.123L264.282 232.185C265.449 231.886 266.687 232.062 267.724 232.676C268.761 233.29 269.512 234.29 269.812 235.459C270.113 236.627 269.938 237.866 269.326 238.905C268.714 239.944 267.715 240.697 266.548 240.999V240.999Z" fill="#CCCCCC"/>
<path d="M112.102 284.278C120.973 284.278 128.165 277.077 128.165 268.194C128.165 259.312 120.973 252.111 112.102 252.111C103.231 252.111 96.0396 259.312 96.0396 268.194C96.0396 277.077 103.231 284.278 112.102 284.278Z" fill="#E6E6E6"/>
<path d="M234.567 188.715L109.63 220.918C106.019 221.844 102.189 221.299 98.9791 219.401C95.7697 217.503 93.4431 214.408 92.5098 210.794L66.3277 108.949C65.4025 105.334 65.9474 101.499 67.8428 98.2849C69.7382 95.0712 72.8293 92.7416 76.4379 91.8071L201.375 59.6041C204.986 58.6778 208.816 59.2234 212.025 61.1213C215.235 63.0191 217.562 66.1143 218.495 69.7276L244.677 171.573C245.602 175.188 245.057 179.023 243.162 182.237C241.266 185.451 238.175 187.78 234.567 188.715Z" fill="white"/>
<path d="M234.567 188.715L109.63 220.918C106.019 221.844 102.189 221.299 98.9791 219.401C95.7697 217.503 93.4431 214.408 92.5098 210.794L66.3277 108.949C65.4025 105.334 65.9474 101.499 67.8428 98.2849C69.7382 95.0712 72.8293 92.7416 76.4379 91.8071L201.375 59.6041C204.986 58.6778 208.816 59.2234 212.025 61.1213C215.235 63.0191 217.562 66.1143 218.495 69.7276L244.677 171.573C245.602 175.188 245.057 179.023 243.162 182.237C241.266 185.451 238.175 187.78 234.567 188.715ZM76.8502 93.411C73.6662 94.2355 70.9388 96.2911 69.2664 99.1267C67.594 101.962 67.1132 105.346 67.9294 108.536L94.1116 210.382C94.9351 213.57 96.9879 216.301 99.8198 217.975C102.652 219.65 106.031 220.131 109.217 219.314L234.154 187.111C237.338 186.287 240.066 184.231 241.738 181.395C243.411 178.56 243.891 175.176 243.075 171.986L216.893 70.1405C216.069 66.9522 214.017 64.2212 211.185 62.5467C208.353 60.8721 204.973 60.3906 201.787 61.208L76.8502 93.411Z" fill="#E6E6E6"/>
<path d="M195.037 93.8484L131.983 110.101C131.431 110.255 130.842 110.194 130.334 109.93C129.827 109.665 129.438 109.218 129.247 108.678C129.158 108.396 129.127 108.098 129.157 107.804C129.186 107.509 129.276 107.224 129.419 106.965C129.562 106.707 129.757 106.48 129.991 106.299C130.225 106.118 130.493 105.986 130.779 105.913L194.964 89.3687C197.557 90.6841 196.875 93.3747 195.036 93.8486L195.037 93.8484Z" fill="#F2F2F2"/>
<path d="M197.884 104.923L134.83 121.176C134.278 121.33 133.689 121.268 133.181 121.004C132.674 120.74 132.285 120.293 132.094 119.752C132.005 119.47 131.974 119.173 132.004 118.878C132.033 118.584 132.123 118.299 132.266 118.04C132.409 117.781 132.604 117.554 132.838 117.373C133.072 117.192 133.34 117.061 133.626 116.987L197.811 100.443C200.404 101.759 199.722 104.449 197.883 104.923L197.884 104.923Z" fill="#F2F2F2"/>
<path d="M122.82 130.995L103.576 135.955C102.948 136.116 102.281 136.021 101.723 135.691C101.164 135.36 100.759 134.822 100.597 134.193L94.7509 111.454C94.5898 110.825 94.6846 110.157 95.0146 109.598C95.3445 109.038 95.8826 108.633 96.5107 108.47L115.754 103.51C116.383 103.349 117.049 103.444 117.608 103.774C118.167 104.105 118.572 104.643 118.734 105.272L124.58 128.011C124.741 128.64 124.646 129.308 124.316 129.867C123.986 130.427 123.448 130.832 122.82 130.995V130.995Z" fill="#E6E6E6"/>
<path d="M203.53 127.646L107.298 152.45C106.746 152.604 106.157 152.543 105.649 152.279C105.141 152.014 104.753 151.567 104.562 151.027C104.473 150.745 104.442 150.447 104.472 150.153C104.501 149.858 104.591 149.573 104.734 149.314C104.877 149.056 105.072 148.829 105.306 148.648C105.539 148.467 105.808 148.336 106.094 148.262L203.458 123.166C206.051 124.481 205.368 127.172 203.53 127.646L203.53 127.646Z" fill="#F2F2F2"/>
<path d="M206.378 138.724L110.146 163.528C109.594 163.682 109.005 163.621 108.497 163.357C107.989 163.092 107.601 162.645 107.409 162.105C107.321 161.823 107.29 161.525 107.32 161.231C107.349 160.936 107.438 160.651 107.582 160.392C107.725 160.134 107.92 159.907 108.154 159.726C108.387 159.545 108.656 159.413 108.942 159.34L206.306 134.244C208.899 135.559 208.216 138.25 206.378 138.724V138.724Z" fill="#F2F2F2"/>
<path d="M209.224 149.794L112.992 174.599C112.44 174.753 111.851 174.692 111.343 174.427C110.835 174.163 110.447 173.716 110.255 173.176C110.167 172.893 110.136 172.596 110.166 172.302C110.195 172.007 110.284 171.722 110.428 171.463C110.571 171.204 110.766 170.978 111 170.797C111.233 170.616 111.502 170.484 111.788 170.41L209.152 145.314C211.745 146.63 211.062 149.321 209.224 149.794V149.794Z" fill="#F2F2F2"/>
<path d="M212.071 160.871L115.839 185.676C115.288 185.83 114.699 185.768 114.191 185.504C113.683 185.24 113.294 184.793 113.103 184.252C113.014 183.97 112.984 183.673 113.013 183.378C113.043 183.084 113.132 182.799 113.276 182.54C113.419 182.281 113.613 182.054 113.847 181.873C114.081 181.692 114.349 181.561 114.635 181.487L211.999 156.391C214.592 157.707 213.91 160.397 212.071 160.871L212.071 160.871Z" fill="#F2F2F2"/>
<path d="M214.918 171.943L118.685 196.747C118.134 196.901 117.545 196.84 117.037 196.576C116.529 196.312 116.14 195.864 115.949 195.324C115.86 195.042 115.83 194.744 115.859 194.45C115.889 194.156 115.978 193.87 116.122 193.612C116.265 193.353 116.46 193.126 116.693 192.945C116.927 192.764 117.195 192.633 117.482 192.559L214.846 167.463C217.438 168.778 216.756 171.469 214.918 171.943V171.943Z" fill="#F2F2F2"/>
<path d="M113.287 273.832C112.938 273.923 112.568 273.898 112.234 273.76L112.213 273.751L107.837 271.894C107.634 271.808 107.45 271.682 107.295 271.525C107.141 271.367 107.018 271.181 106.936 270.976C106.853 270.772 106.812 270.553 106.814 270.332C106.816 270.111 106.861 269.893 106.947 269.689C107.034 269.486 107.159 269.302 107.316 269.147C107.474 268.993 107.66 268.871 107.865 268.788C108.069 268.706 108.288 268.665 108.509 268.667C108.729 268.669 108.947 268.715 109.15 268.802L111.985 270.01L115.701 261.257C115.787 261.055 115.912 260.871 116.07 260.716C116.227 260.562 116.413 260.44 116.617 260.357C116.821 260.275 117.04 260.233 117.26 260.235C117.48 260.237 117.698 260.283 117.9 260.369L117.901 260.369L117.879 260.427L117.902 260.369C118.311 260.544 118.634 260.874 118.8 261.287C118.966 261.7 118.962 262.162 118.789 262.572L114.417 272.863C114.316 273.1 114.161 273.311 113.966 273.478C113.77 273.646 113.538 273.767 113.288 273.83L113.287 273.832Z" fill="white"/>
<path d="M382.461 384.787H169.098C161.863 384.779 154.926 381.897 149.81 376.774C144.694 371.651 141.816 364.706 141.808 357.461V106.554C141.816 99.3095 144.694 92.3637 149.81 87.2408C154.926 82.1179 161.863 79.2362 169.098 79.228H367.598L409.752 112.872V357.461C409.744 364.706 406.866 371.651 401.75 376.774C396.633 381.897 389.697 384.779 382.461 384.787V384.787Z" fill="#E6E6E6"/>
<path d="M169.098 87.0947C163.946 87.1005 159.006 89.1526 155.363 92.8008C151.719 96.4489 149.67 101.395 149.664 106.554V357.461C149.67 362.62 151.719 367.566 155.363 371.214C159.006 374.862 163.946 376.915 169.098 376.92H382.461C387.614 376.915 392.554 374.862 396.197 371.214C399.84 367.566 401.89 362.62 401.896 357.461V116.662L364.85 87.0947H169.098Z" fill="white"/>
<path d="M340.962 160.052H243.821C242.616 160.052 241.46 159.572 240.608 158.719C239.755 157.865 239.277 156.708 239.277 155.501C239.277 154.294 239.755 153.137 240.608 152.283C241.46 151.43 242.616 150.95 243.821 150.95H340.962C342.168 150.95 343.323 151.43 344.176 152.283C345.028 153.137 345.507 154.294 345.507 155.501C345.507 156.708 345.028 157.865 344.176 158.719C343.323 159.572 342.168 160.052 340.962 160.052V160.052Z" fill="#6C63FF"/>
<path d="M359.709 175.41H243.821C242.617 175.408 241.463 174.928 240.612 174.075C239.761 173.222 239.283 172.065 239.283 170.859C239.283 169.653 239.761 168.497 240.612 167.644C241.463 166.79 242.617 166.31 243.821 166.309H359.709C360.306 166.308 360.898 166.425 361.45 166.653C362.002 166.882 362.504 167.217 362.926 167.639C363.349 168.062 363.684 168.564 363.913 169.116C364.142 169.669 364.26 170.261 364.26 170.859C364.26 171.457 364.142 172.05 363.913 172.602C363.684 173.155 363.349 173.656 362.926 174.079C362.504 174.502 362.002 174.837 361.45 175.065C360.898 175.293 360.306 175.411 359.709 175.41V175.41Z" fill="#6C63FF"/>
<path d="M340.963 219.775H243.825C242.62 219.775 241.464 220.255 240.612 221.108C239.759 221.961 239.281 223.119 239.281 224.325C239.281 225.532 239.759 226.69 240.612 227.543C241.464 228.396 242.62 228.876 243.825 228.876H340.963C342.168 228.876 343.324 228.396 344.176 227.543C345.028 226.69 345.507 225.532 345.507 224.325C345.507 223.119 345.028 221.961 344.176 221.108C343.324 220.255 342.168 219.775 340.963 219.775V219.775Z" fill="#CCCCCC"/>
<path d="M359.711 235.136H243.825C242.62 235.136 241.464 235.615 240.612 236.469C239.759 237.322 239.281 238.479 239.281 239.686C239.281 240.893 239.759 242.05 240.612 242.904C241.464 243.757 242.62 244.237 243.825 244.237H359.711C360.916 244.237 362.072 243.757 362.924 242.904C363.776 242.05 364.255 240.893 364.255 239.686C364.255 238.479 363.776 237.322 362.924 236.469C362.072 235.615 360.916 235.136 359.711 235.136Z" fill="#CCCCCC"/>
<path d="M340.962 297.707H243.821C242.616 297.707 241.46 297.227 240.608 296.374C239.755 295.52 239.277 294.363 239.277 293.156C239.277 291.949 239.755 290.792 240.608 289.938C241.46 289.085 242.616 288.605 243.821 288.605H340.962C342.168 288.605 343.323 289.085 344.176 289.938C345.028 290.792 345.507 291.949 345.507 293.156C345.507 294.363 345.028 295.52 344.176 296.374C343.323 297.227 342.168 297.707 340.962 297.707V297.707Z" fill="#CCCCCC"/>
<path d="M359.709 313.065H243.821C242.617 313.063 241.463 312.583 240.612 311.73C239.761 310.877 239.283 309.72 239.283 308.514C239.283 307.308 239.761 306.152 240.612 305.299C241.463 304.445 242.617 303.965 243.821 303.964H359.709C360.306 303.963 360.898 304.08 361.45 304.308C362.002 304.537 362.504 304.872 362.926 305.294C363.349 305.717 363.684 306.219 363.913 306.771C364.142 307.324 364.26 307.916 364.26 308.514C364.26 309.112 364.142 309.705 363.913 310.257C363.684 310.81 363.349 311.311 362.926 311.734C362.504 312.157 362.002 312.492 361.45 312.72C360.898 312.948 360.306 313.066 359.709 313.065Z" fill="#CCCCCC"/>
<path d="M203.369 179.264C212.24 179.264 219.432 172.063 219.432 163.18C219.432 154.297 212.24 147.096 203.369 147.096C194.498 147.096 187.306 154.297 187.306 163.18C187.306 172.063 194.498 179.264 203.369 179.264Z" fill="#6C63FF"/>
<path d="M201.777 169.315C201.416 169.316 201.064 169.199 200.775 168.982L200.757 168.969L196.982 166.077C196.807 165.943 196.66 165.776 196.549 165.585C196.438 165.394 196.366 165.182 196.337 164.963C196.308 164.745 196.322 164.522 196.379 164.309C196.436 164.095 196.534 163.895 196.669 163.72C196.803 163.544 196.97 163.397 197.161 163.287C197.353 163.176 197.563 163.105 197.782 163.076C198.001 163.047 198.223 163.062 198.436 163.12C198.649 163.177 198.849 163.276 199.024 163.411L201.469 165.288L207.247 157.74C207.381 157.565 207.548 157.419 207.738 157.308C207.929 157.198 208.14 157.126 208.358 157.097C208.576 157.069 208.798 157.083 209.011 157.14C209.223 157.197 209.423 157.295 209.598 157.43L209.598 157.43L209.562 157.48L209.599 157.43C209.952 157.701 210.182 158.102 210.241 158.543C210.299 158.984 210.18 159.431 209.909 159.784L203.113 168.658C202.956 168.863 202.754 169.028 202.522 169.142C202.291 169.256 202.037 169.314 201.779 169.314L201.777 169.315Z" fill="white"/>
<path d="M221.083 232.006C221.084 234.118 220.669 236.21 219.862 238.162C219.055 240.114 217.873 241.888 216.381 243.382C214.89 244.876 213.119 246.061 211.17 246.87C209.221 247.679 207.132 248.095 205.023 248.095C204.885 248.098 204.747 248.093 204.609 248.079C201.451 247.998 198.387 246.986 195.8 245.17C193.213 243.353 191.218 240.814 190.066 237.868C188.914 234.922 188.654 231.702 189.32 228.61C189.987 225.517 191.549 222.69 193.812 220.483C196.075 218.275 198.937 216.784 202.042 216.198C205.146 215.611 208.355 215.954 211.266 217.184C214.177 218.414 216.66 220.476 218.407 223.112C220.153 225.749 221.084 228.842 221.083 232.006V232.006Z" fill="#CCCCCC"/>
<path d="M203.369 316.919C212.24 316.919 219.432 309.718 219.432 300.835C219.432 291.952 212.24 284.751 203.369 284.751C194.498 284.751 187.306 291.952 187.306 300.835C187.306 309.718 194.498 316.919 203.369 316.919Z" fill="#CCCCCC"/>
<path d="M408.931 113.954H375.911C373.5 113.954 371.188 112.996 369.484 111.289C367.779 109.582 366.821 107.267 366.821 104.853V80.4326C366.821 80.3257 366.851 80.2209 366.908 80.1304C366.965 80.0398 367.046 79.967 367.142 79.9205C367.238 79.874 367.346 79.8555 367.452 79.8672C367.558 79.8789 367.658 79.9203 367.742 79.9867L409.284 112.94C409.377 113.013 409.444 113.113 409.477 113.227C409.51 113.34 409.507 113.461 409.468 113.573C409.429 113.684 409.357 113.781 409.26 113.849C409.164 113.918 409.049 113.954 408.931 113.954Z" fill="#CCCCCC"/>
<path d="M221.083 232.006C221.084 234.118 220.669 236.21 219.862 238.162C219.055 240.114 217.873 241.888 216.381 243.382C214.89 244.876 213.119 246.061 211.17 246.87C209.221 247.679 207.132 248.095 205.023 248.095C204.885 248.098 204.747 248.093 204.609 248.079C202.534 242.896 201.734 237.29 202.277 231.733C202.819 226.175 204.689 220.83 207.727 216.148C211.463 216.79 214.853 218.733 217.297 221.635C219.741 224.536 221.082 228.21 221.083 232.006V232.006Z" fill="#6C63FF"/>
<path d="M239.276 224.33C239.279 223.122 239.758 221.965 240.611 221.111C241.464 220.258 242.619 219.777 243.825 219.775H268.031C269.445 222.655 270.449 225.718 271.016 228.876H243.825C242.62 228.875 241.465 228.397 240.612 227.544C239.759 226.692 239.279 225.536 239.276 224.33V224.33Z" fill="#6C63FF"/>
<path d="M271.579 235.136C271.58 238.21 271.174 241.27 270.371 244.237H243.825C242.62 244.237 241.464 243.757 240.612 242.904C239.759 242.05 239.281 240.893 239.281 239.686C239.281 238.479 239.759 237.322 240.612 236.469C241.464 235.615 242.62 235.136 243.825 235.136H271.579Z" fill="#6C63FF"/>
<path d="M331.47 291.261C330.785 292.386 329.682 293.192 328.403 293.502C327.124 293.812 325.774 293.601 324.651 292.915L266.757 257.556C266.201 257.216 265.717 256.77 265.333 256.243C264.949 255.716 264.672 255.118 264.519 254.484C264.365 253.85 264.338 253.192 264.439 252.547C264.539 251.903 264.766 251.284 265.105 250.727C265.444 250.17 265.89 249.685 266.416 249.301C266.943 248.916 267.54 248.639 268.173 248.486C268.806 248.332 269.464 248.305 270.107 248.406C270.751 248.506 271.369 248.733 271.925 249.073L329.818 284.432C330.942 285.118 331.747 286.223 332.057 287.504C332.367 288.784 332.156 290.136 331.47 291.261V291.261Z" fill="#3F3D56"/>
<path d="M273.577 255.902C269.489 262.613 263.505 267.96 256.382 271.266C249.259 274.572 241.317 275.688 233.56 274.475C225.803 273.261 218.58 269.771 212.804 264.447C207.027 259.123 202.958 252.203 201.109 244.563C199.261 236.922 199.716 228.905 202.418 221.524C205.121 214.143 209.948 207.73 216.29 203.096C222.632 198.462 230.204 195.815 238.048 195.49C245.893 195.165 253.657 197.177 260.359 201.271C269.338 206.768 275.772 215.608 278.25 225.849C280.728 236.091 279.047 246.899 273.577 255.902ZM214.272 219.68C211.206 224.714 209.699 230.545 209.942 236.436C210.186 242.327 212.168 248.013 215.639 252.776C219.11 257.539 223.913 261.164 229.442 263.193C234.97 265.222 240.976 265.565 246.698 264.176C252.421 262.788 257.604 259.732 261.592 255.394C265.58 251.056 268.194 245.632 269.103 239.806C270.012 233.981 269.176 228.017 266.7 222.667C264.223 217.318 260.219 212.824 255.192 209.754C248.449 205.646 240.353 204.384 232.682 206.245C225.011 208.106 218.39 212.938 214.272 219.68V219.68Z" fill="#3F3D56"/>
<path d="M400.761 241.577C411.979 241.577 421.072 232.471 421.072 221.238C421.072 210.006 411.979 200.9 400.761 200.9C389.543 200.9 380.449 210.006 380.449 221.238C380.449 232.471 389.543 241.577 400.761 241.577Z" fill="#A0616A"/>
<path d="M399.448 335.257C399.056 334.035 398.927 332.744 399.068 331.468C399.21 330.192 399.619 328.961 400.269 327.855C400.918 326.748 401.794 325.792 402.839 325.048C403.884 324.304 405.074 323.79 406.331 323.539C406.729 323.461 407.132 323.411 407.537 323.39L428.933 289.005L409.389 270.401C408.643 269.69 408.044 268.839 407.628 267.895C407.212 266.951 406.986 265.934 406.965 264.903C406.944 263.871 407.126 262.846 407.503 261.885C407.88 260.925 408.443 260.049 409.159 259.308C409.876 258.567 410.732 257.975 411.678 257.567C412.625 257.159 413.642 256.942 414.673 256.93C415.703 256.918 416.725 257.111 417.681 257.497C418.636 257.883 419.506 258.454 420.24 259.179L447.224 285.821L447.278 285.887C448.113 287.159 448.516 288.666 448.427 290.186C448.339 291.705 447.763 293.155 446.787 294.321L416.808 329.823C416.898 330.107 416.972 330.396 417.032 330.689C417.282 331.948 417.265 333.245 416.979 334.497C416.694 335.748 416.148 336.925 415.377 337.951C414.606 338.976 413.628 339.827 412.505 340.447C411.383 341.067 410.143 341.443 408.865 341.55C408.607 341.573 408.35 341.584 408.094 341.584C406.171 341.576 404.3 340.96 402.747 339.824C401.194 338.687 400.04 337.089 399.448 335.257V335.257Z" fill="#A0616A"/>
<path d="M367.307 504.297L357.169 504.297L352.346 465.139L367.309 465.14L367.307 504.297Z" fill="#A0616A"/>
<path d="M369.893 514.138L337.202 514.137V513.723C337.202 512.05 337.531 510.393 338.17 508.847C338.81 507.301 339.747 505.897 340.929 504.714C342.11 503.53 343.513 502.592 345.057 501.952C346.6 501.311 348.255 500.982 349.926 500.982H349.927L369.894 500.983L369.893 514.138Z" fill="#2F2E41"/>
<path d="M468.081 490.261L459.369 495.454L435.217 464.281L448.074 456.615L468.081 490.261Z" fill="#A0616A"/>
<path d="M475.33 497.392L447.241 514.138L447.029 513.783C446.174 512.345 445.611 510.753 445.37 509.097C445.13 507.441 445.218 505.754 445.628 504.132C446.039 502.511 446.765 500.986 447.764 499.645C448.763 498.304 450.017 497.173 451.452 496.317L451.453 496.316L468.609 486.088L475.33 497.392Z" fill="#2F2E41"/>
<path d="M351.067 487.052C344.275 406.973 340.234 332.58 365.063 302.232L365.255 301.997L407.039 318.733L407.108 318.882C407.249 319.19 421.145 349.797 417.903 370.384L428.21 417.856L461.815 474.199C462.086 474.652 462.257 475.158 462.317 475.683C462.378 476.208 462.326 476.739 462.166 477.243C462.005 477.746 461.74 478.21 461.387 478.602C461.034 478.995 460.602 479.308 460.119 479.521L445.515 485.955C444.691 486.314 443.765 486.364 442.908 486.096C442.05 485.827 441.317 485.258 440.844 484.493L404.288 424.805L383.64 379.024C383.528 378.776 383.337 378.571 383.097 378.442C382.857 378.313 382.581 378.266 382.313 378.31C382.044 378.353 381.796 378.483 381.609 378.681C381.422 378.879 381.304 379.133 381.276 379.405L369.83 487.134C369.734 488.05 369.303 488.897 368.619 489.513C367.936 490.128 367.049 490.468 366.129 490.467H354.776C353.845 490.461 352.949 490.108 352.263 489.477C351.577 488.846 351.151 487.981 351.067 487.052V487.052Z" fill="#2F2E41"/>
<path d="M365.204 302.867L365.004 302.771L364.973 302.552C363.412 291.613 365.26 279.459 370.464 266.428C373.03 260.05 377.798 254.806 383.9 251.654C390.003 248.501 397.033 247.648 403.711 249.251V249.251C407.558 250.2 411.165 251.938 414.306 254.357C417.446 256.775 420.051 259.819 421.955 263.298C423.834 266.741 424.979 270.537 425.317 274.447C425.655 278.356 425.178 282.293 423.917 286.008C417.356 305.219 408.845 323.194 408.759 323.374L408.581 323.749L365.204 302.867Z" fill="#6C63FF"/>
<path d="M319.615 275.62C320.621 274.825 321.784 274.251 323.026 273.937C324.269 273.623 325.564 273.576 326.827 273.798C328.09 274.02 329.291 274.506 330.353 275.226C331.414 275.945 332.312 276.881 332.987 277.972C333.2 278.318 333.387 278.679 333.549 279.052L373.206 287.078L383.766 262.232C384.169 261.283 384.756 260.423 385.493 259.702C386.231 258.982 387.103 258.414 388.061 258.033C389.018 257.652 390.041 257.464 391.071 257.481C392.102 257.498 393.118 257.719 394.063 258.132C395.007 258.544 395.86 259.14 396.573 259.885C397.286 260.629 397.845 261.508 398.217 262.47C398.589 263.432 398.767 264.459 398.741 265.49C398.714 266.521 398.484 267.537 398.064 268.479L382.591 303.118L382.548 303.192C381.65 304.42 380.381 305.326 378.929 305.775C377.477 306.224 375.919 306.192 374.486 305.684L330.778 290C330.543 290.183 330.299 290.354 330.046 290.512C328.956 291.188 327.736 291.626 326.466 291.797C325.195 291.968 323.903 291.868 322.674 291.504C321.444 291.14 320.306 290.52 319.332 289.685C318.359 288.849 317.573 287.817 317.026 286.657C316.914 286.422 316.814 286.185 316.724 285.945C316.058 284.139 315.979 282.168 316.498 280.314C317.017 278.46 318.108 276.817 319.615 275.62V275.62Z" fill="#A0616A"/>
<path d="M474.138 243.019C472.182 239.548 469.331 236.369 465.563 235.086C460.696 233.429 455.427 235.193 450.423 236.371C446.568 237.278 442.541 237.834 438.655 237.068C434.769 236.302 431.021 234.038 429.254 230.49C426.653 225.27 428.844 219.045 428.685 213.214C428.604 210.04 427.804 206.925 426.346 204.105C424.888 201.286 422.809 198.834 420.267 196.936C417.725 195.037 414.786 193.741 411.671 193.146C408.556 192.55 405.347 192.67 402.285 193.497C397.494 192.113 393.156 191.985 390.192 195.673C386.464 195.673 382.888 197.156 380.251 199.796C377.615 202.436 376.134 206.016 376.134 209.75H389.577C388.939 213.182 389.668 216.728 391.606 219.63C393.979 223.121 398.106 225.646 398.9 229.793C399.67 233.812 396.942 237.626 394.079 240.547C391.218 243.469 387.898 246.364 387.004 250.357C386.457 253.388 387.078 256.515 388.744 259.105C390.406 261.664 392.469 263.939 394.852 265.842C405.591 275.054 418.353 281.592 432.097 284.921C441.777 287.255 452.364 287.86 461.349 283.567C464.943 281.85 468.147 279.411 470.76 276.402C473.374 273.393 475.341 269.878 476.54 266.075C477.74 262.272 478.146 258.263 477.732 254.297C477.319 250.331 476.096 246.492 474.138 243.019V243.019Z" fill="#2F2E41"/>
<path d="M477.173 515H320.045C319.826 515 319.616 514.913 319.461 514.757C319.305 514.602 319.218 514.391 319.218 514.172C319.218 513.952 319.305 513.742 319.461 513.586C319.616 513.431 319.826 513.344 320.045 513.344H477.173C477.392 513.344 477.603 513.431 477.758 513.586C477.913 513.742 478 513.952 478 514.172C478 514.391 477.913 514.602 477.758 514.757C477.603 514.913 477.392 515 477.173 515Z" fill="#CCCCCC"/>
</g>
<defs>
<clipPath id="clip0_12_0">
<rect width="478" height="515" fill="white"/>
</clipPath>
</defs>
</svg>
