<svg width="654" height="352" viewBox="0 0 654 352" fill="none" xmlns="http://www.w3.org/2000/svg">
<path d="M141.367 351.239H139.894C139.894 332.882 132.602 315.276 119.623 302.296C106.643 289.315 89.0391 282.022 70.6833 282.022C52.3275 282.022 34.7235 289.315 21.744 302.296C8.76443 315.276 1.47261 332.882 1.47261 351.239H4.57764e-05C4.60557e-05 332.491 7.447 314.511 20.7027 301.254C33.9584 287.997 51.9369 280.55 70.6833 280.55C89.4297 280.55 107.408 287.997 120.664 301.254C133.92 314.511 141.367 332.491 141.367 351.239Z" fill="#3F3D56"/>
<path d="M653.82 351.239H652.348C652.348 332.882 645.056 315.276 632.076 302.296C619.097 289.315 601.493 282.022 583.137 282.022C564.781 282.022 547.177 289.315 534.198 302.296C521.218 315.276 513.926 332.882 513.926 351.239H512.454C512.454 332.491 519.901 314.511 533.156 301.254C546.412 287.997 564.391 280.55 583.137 280.55C601.883 280.55 619.862 287.997 633.118 301.254C646.373 314.511 653.82 332.491 653.82 351.239Z" fill="#3F3D56"/>
<path d="M480.794 182.615H479.321C479.321 112.779 422.51 55.9627 352.68 55.9627C282.85 55.9627 226.039 112.779 226.039 182.615H224.567C224.567 111.967 282.038 54.49 352.68 54.49C423.322 54.49 480.794 111.967 480.794 182.615Z" fill="#3F3D56"/>
<path d="M107.129 58.1717C123.192 58.1717 136.213 45.1495 136.213 29.0859C136.213 13.0222 123.192 0 107.129 0C91.0671 0 78.0461 13.0222 78.0461 29.0859C78.0461 45.1495 91.0671 58.1717 107.129 58.1717Z" fill="#FF6584"/>
<path d="M113.308 229.288L163.272 169.778H261.507L321.539 228.256L320.326 229.036H320.759V350.67H113.376V229.036L113.308 229.288Z" fill="#3F3D56"/>
<path d="M143.369 203.416H154.695V164.206H143.369V203.416Z" fill="#3F3D56"/>
<path d="M162.493 168.998L224.084 241.215V350.67H113.376V227.476L162.493 168.998Z" fill="#6C63FF"/>
<path d="M209.851 255.546H187.242V278.666H209.851V255.546Z" fill="#3F3D56"/>
<path d="M209.851 287.005H187.242V310.126H209.851V287.005Z" fill="#3F3D56"/>
<path d="M209.851 255.546H187.242V278.666H209.851V255.546Z" fill="white"/>
<path d="M209.851 287.005H187.242V310.126H209.851V287.005Z" fill="white"/>
<path d="M178.582 255.546H155.973V278.666H178.582V255.546Z" fill="#3F3D56"/>
<path d="M178.582 287.005H155.973V310.126H178.582V287.005Z" fill="#3F3D56"/>
<path d="M178.582 255.546H155.973V278.666H178.582V255.546Z" fill="white"/>
<path d="M178.582 287.005H155.973V310.126H178.582V287.005Z" fill="white"/>
<path d="M147.313 255.546H124.704V278.666H147.313V255.546Z" fill="#3F3D56"/>
<path d="M147.313 287.005H124.704V310.126H147.313V287.005Z" fill="#3F3D56"/>
<path d="M147.313 255.546H124.704V278.666H147.313V255.546Z" fill="white"/>
<path d="M147.313 287.005H124.704V310.126H147.313V287.005Z" fill="white"/>
<path d="M367.406 29.454H357.098V55.2263H367.406V29.454Z" fill="#6C63FF"/>
<path d="M366.669 53.0173H279.052V351.239H366.669V53.0173Z" fill="#6C63FF"/>
<path d="M402.011 53.0173H366.669V351.239H402.011V53.0173Z" fill="#3F3D56"/>
<path d="M308.135 78.7896H294.882V92.0439H308.135V78.7896Z" fill="white"/>
<path d="M329.487 78.7896H316.234V92.0439H329.487V78.7896Z" fill="white"/>
<path d="M350.839 78.7896H337.586V92.0439H350.839V78.7896Z" fill="white"/>
<path d="M308.503 108.98H295.25V122.234H308.503V108.98Z" fill="white"/>
<path d="M329.855 108.98H316.602V122.234H329.855V108.98Z" fill="white"/>
<path d="M351.208 108.98H337.954V122.234H351.208V108.98Z" fill="white"/>
<path d="M308.871 139.17H295.618V152.425H308.871V139.17Z" fill="white"/>
<path d="M330.223 139.17H316.97V152.425H330.223V139.17Z" fill="white"/>
<path d="M351.576 139.17H338.323V152.425H351.576V139.17Z" fill="white"/>
<path d="M309.239 169.361H295.986V182.615H309.239V169.361Z" fill="white"/>
<path d="M330.592 169.361H317.338V182.615H330.592V169.361Z" fill="white"/>
<path d="M351.944 169.361H338.691V182.615H351.944V169.361Z" fill="white"/>
<path d="M309.607 199.551H296.354V212.805H309.607V199.551Z" fill="white"/>
<path d="M330.96 199.551H317.707V212.805H330.96V199.551Z" fill="white"/>
<path d="M352.312 199.551H339.059V212.805H352.312V199.551Z" fill="white"/>
<path d="M309.976 229.742H296.723V242.996H309.976V229.742Z" fill="white"/>
<path d="M331.328 229.742H318.075V242.996H331.328V229.742Z" fill="white"/>
<path d="M352.68 229.742H339.427V242.996H352.68V229.742Z" fill="white"/>
<path d="M310.344 259.932H297.091V273.186H310.344V259.932Z" fill="white"/>
<path d="M331.696 259.932H318.443V273.186H331.696V259.932Z" fill="white"/>
<path d="M353.048 259.932H339.795V273.186H353.048V259.932Z" fill="white"/>
<path d="M310.712 290.122H297.459V303.377H310.712V290.122Z" fill="white"/>
<path d="M332.064 290.122H318.811V303.377H332.064V290.122Z" fill="white"/>
<path d="M332.064 325.467H318.811V350.503H332.064V325.467Z" fill="white"/>
<path d="M353.416 290.122H340.163V303.377H353.416V290.122Z" fill="white"/>
<path d="M372.56 29.454H366.669V54.49H372.56V29.454Z" fill="#3F3D56"/>
<path d="M477.848 160.525H467.54V175.799H477.848V160.525Z" fill="#6C63FF"/>
<path d="M477.112 174.49H389.494V351.239H477.112V174.49Z" fill="#6C63FF"/>
<path d="M512.454 174.49H477.112V351.239H512.454V174.49Z" fill="#3F3D56"/>
<path d="M420.05 199.551H406.797V212.805H420.05V199.551Z" fill="white"/>
<path d="M441.402 199.551H428.149V212.805H441.402V199.551Z" fill="white"/>
<path d="M462.755 199.551H449.501V212.805H462.755V199.551Z" fill="white"/>
<path d="M420.418 229.742H407.165V242.996H420.418V229.742Z" fill="white"/>
<path d="M441.77 229.742H428.517V242.996H441.77V229.742Z" fill="white"/>
<path d="M463.123 229.742H449.87V242.996H463.123V229.742Z" fill="white"/>
<path d="M420.786 259.932H407.533V273.186H420.786V259.932Z" fill="white"/>
<path d="M442.139 259.932H428.885V273.186H442.139V259.932Z" fill="white"/>
<path d="M463.491 259.932H450.238V273.186H463.491V259.932Z" fill="white"/>
<path d="M421.155 290.122H407.901V303.377H421.155V290.122Z" fill="white"/>
<path d="M442.507 290.122H429.254V303.377H442.507V290.122Z" fill="white"/>
<path d="M442.507 325.467H429.254V350.503H442.507V325.467Z" fill="white"/>
<path d="M463.859 290.122H450.606V303.377H463.859V290.122Z" fill="white"/>
<path d="M483.002 160.525H477.112V175.363H483.002V160.525Z" fill="#3F3D56"/>
<path d="M654 350.35H0.179718V352H654V350.35Z" fill="#3F3D56"/>
<path d="M539.446 316.691C550.035 316.691 558.619 308.106 558.619 297.516C558.619 286.926 550.035 278.341 539.446 278.341C528.857 278.341 520.272 286.926 520.272 297.516C520.272 308.106 528.857 316.691 539.446 316.691Z" fill="#6C63FF"/>
<path opacity="0.2" d="M553.708 284.708C555.496 288.892 555.739 293.576 554.392 297.922C553.046 302.268 550.198 305.994 546.357 308.434C542.517 310.873 537.934 311.867 533.428 311.239C528.922 310.61 524.786 308.4 521.76 305.003C522.852 307.559 524.487 309.847 526.552 311.708C528.616 313.57 531.061 314.96 533.716 315.783C536.371 316.606 539.173 316.841 541.928 316.473C544.683 316.106 547.326 315.143 549.672 313.653C552.018 312.162 554.013 310.179 555.517 307.842C557.021 305.504 557.999 302.867 558.383 300.114C558.766 297.361 558.547 294.557 557.74 291.897C556.933 289.237 555.557 286.784 553.708 284.708Z" fill="black"/>
<path d="M539.498 297.516H539.551L540.499 351.88H538.498L539.498 297.516Z" fill="#3F3D56"/>
<path d="M542.989 327.128L542.548 326.289L539.378 327.957L539.82 328.796L542.989 327.128Z" fill="#3F3D56"/>
<path d="M595.815 298.368C611.917 298.368 624.971 285.313 624.971 269.209C624.971 253.105 611.917 240.05 595.815 240.05C579.712 240.05 566.658 253.105 566.658 269.209C566.658 285.313 579.712 298.368 595.815 298.368Z" fill="#6C63FF"/>
<path opacity="0.2" d="M617.503 249.734C620.223 256.096 620.592 263.218 618.544 269.827C616.496 276.436 612.165 282.102 606.325 285.812C600.485 289.522 593.516 291.034 586.664 290.078C579.811 289.122 573.522 285.761 568.92 280.594C570.581 284.482 573.068 287.961 576.207 290.792C579.347 293.622 583.064 295.736 587.101 296.988C591.139 298.239 595.4 298.597 599.59 298.038C603.78 297.479 607.798 296.015 611.366 293.749C614.934 291.482 617.966 288.467 620.254 284.912C622.541 281.357 624.028 277.347 624.611 273.16C625.195 268.974 624.862 264.71 623.634 260.665C622.407 256.62 620.315 252.89 617.503 249.734Z" fill="black"/>
<path d="M595.895 269.209H595.975L597.416 351.88H594.373L595.895 269.209Z" fill="#3F3D56"/>
<path d="M601.204 314.24L600.532 312.964L595.712 315.501L596.384 316.777L601.204 314.24Z" fill="#3F3D56"/>
<path d="M19.6291 315.954C30.2182 315.954 38.8024 307.369 38.8024 296.779C38.8024 286.189 30.2182 277.604 19.6291 277.604C9.04 277.604 0.455841 286.189 0.455841 296.779C0.455841 307.369 9.04 315.954 19.6291 315.954Z" fill="#6C63FF"/>
<path opacity="0.2" d="M33.8914 283.972C35.6798 288.156 35.9224 292.839 34.5758 297.186C33.2293 301.532 30.3813 305.258 26.5408 307.697C22.7003 310.137 18.1176 311.131 13.6115 310.503C9.10538 309.874 4.96958 307.664 1.9431 304.266C3.03561 306.822 4.67075 309.11 6.73523 310.972C8.79971 312.833 11.2442 314.224 13.8992 315.046C16.5543 315.869 19.3565 316.105 22.1117 315.737C24.8669 315.369 27.5092 314.407 29.8556 312.916C32.2019 311.426 34.1962 309.443 35.7002 307.105C37.2043 304.768 38.1821 302.131 38.566 299.378C38.9499 296.624 38.7307 293.82 37.9235 291.16C37.1163 288.5 35.7405 286.047 33.8914 283.972H33.8914Z" fill="black"/>
<path d="M19.6816 296.78H19.7346L20.6822 351.144H18.681L19.6816 296.78Z" fill="#3F3D56"/>
<path d="M23.1729 326.391L22.7312 325.552L19.5618 327.221L20.0035 328.06L23.1729 326.391Z" fill="#3F3D56"/>
<path d="M446.493 27.4922L453.271 22.0706C448.005 21.4896 445.842 24.3616 444.956 26.6348C440.842 24.9265 436.364 27.1653 436.364 27.1653L449.926 32.0891C449.242 30.2615 448.051 28.6669 446.493 27.4922Z" fill="#3F3D56"/>
<path d="M106.329 54.7372L113.107 49.3156C107.842 48.7346 105.678 51.6066 104.793 53.8798C100.679 52.1715 96.201 54.4103 96.201 54.4103L109.763 59.3341C109.078 57.5065 107.887 55.9119 106.329 54.7372Z" fill="#3F3D56"/>
<path d="M549.572 82.7186L556.35 77.297C551.085 76.716 548.921 79.588 548.036 81.8612C543.922 80.1528 539.444 82.3917 539.444 82.3917L553.006 87.3154C552.321 85.4879 551.13 83.8933 549.572 82.7186Z" fill="#3F3D56"/>
<path d="M162.287 40.0102L169.065 34.5886C163.799 34.0076 161.636 36.8796 160.75 39.1528C156.637 37.4445 152.159 39.6833 152.159 39.6833L165.72 44.6071C165.036 42.7795 163.845 41.1849 162.287 40.0102Z" fill="#3F3D56"/>
<path d="M174.804 98.9183L181.582 93.4967C176.316 92.9157 174.153 95.7877 173.267 98.0609C169.154 96.3525 164.675 98.5914 164.675 98.5914L178.237 103.515C177.553 101.688 176.362 100.093 174.804 98.9183Z" fill="#3F3D56"/>
<path d="M438.393 129.845L445.171 124.423C439.906 123.842 437.742 126.714 436.857 128.988C432.743 127.279 428.265 129.518 428.265 129.518L441.827 134.442C441.143 132.614 439.952 131.02 438.393 129.845Z" fill="#3F3D56"/>
<path d="M78.0461 335.776H32.3965V337.249H39.5156V351.239H40.9882V337.249H68.7181V351.239H70.1907V337.249H78.0461V335.776Z" fill="#3F3D56"/>
<path d="M124.432 341.667C122.63 341.667 120.86 342.141 119.3 343.044C117.716 341.611 115.751 340.669 113.642 340.332C111.533 339.995 109.371 340.278 107.42 341.146C105.468 342.014 103.811 343.429 102.648 345.221C101.486 347.013 100.868 349.103 100.871 351.239H134.703C134.518 348.641 133.356 346.208 131.451 344.432C129.545 342.656 127.037 341.668 124.432 341.667Z" fill="#3F3D56"/>
<path d="M298.931 341.667C297.13 341.667 295.36 342.141 293.8 343.044C292.216 341.611 290.25 340.669 288.141 340.332C286.032 339.995 283.871 340.278 281.919 341.146C279.968 342.014 278.31 343.429 277.148 345.221C275.985 347.013 275.368 349.103 275.37 351.239H309.202C309.018 348.641 307.856 346.208 305.95 344.432C304.044 342.656 301.536 341.668 298.931 341.667Z" fill="#3F3D56"/>
<path d="M413.055 341.667C411.254 341.667 409.484 342.141 407.924 343.044C406.34 341.611 404.374 340.669 402.265 340.332C400.156 339.995 397.995 340.278 396.043 341.146C394.092 342.014 392.434 343.429 391.272 345.221C390.109 347.013 389.492 349.103 389.494 351.239H423.326C423.142 348.641 421.98 346.208 420.074 344.432C418.168 342.656 415.66 341.668 413.055 341.667Z" fill="#3F3D56"/>
<path d="M563.257 341.667C561.456 341.667 559.686 342.141 558.126 343.044C556.542 341.611 554.576 340.669 552.467 340.332C550.358 339.995 548.197 340.278 546.245 341.146C544.294 342.014 542.636 343.429 541.474 345.221C540.311 347.013 539.694 349.103 539.696 351.239H573.528C573.344 348.641 572.182 346.208 570.276 344.432C568.37 342.656 565.862 341.668 563.257 341.667Z" fill="#3F3D56"/>
<path d="M635.413 341.667C633.611 341.667 631.841 342.141 630.282 343.044C628.698 341.611 626.732 340.669 624.623 340.332C622.514 339.995 620.352 340.278 618.401 341.146C616.45 342.014 614.792 343.429 613.629 345.221C612.467 347.013 611.85 349.103 611.852 351.239H645.684C645.5 348.641 644.338 346.208 642.432 344.432C640.526 342.656 638.018 341.668 635.413 341.667Z" fill="#3F3D56"/>
<path d="M94.9807 299.695H83.2001V311.476H88.6611V351.175H90.1337V311.476H94.9807V299.695Z" fill="#3F3D56"/>
<path d="M78.136 331.37H32.4864V332.843H78.136V331.37Z" fill="#3F3D56"/>
<path d="M78.136 327.688H32.4864V329.161H78.136V327.688Z" fill="#3F3D56"/>
<path d="M78.136 324.007H32.4864V325.479H78.136V324.007Z" fill="#3F3D56"/>
</svg>
